<svg height="2398.8515625" version="1.1" width="869.49609375" xmlns="http://www.w3.org/2000/svg" xmlns:xlink="http://www.w3.org/1999/xlink" style="overflow: hidden; position: relative;" viewBox="0 0 869.49609375 2398.8515625" preserveAspectRatio="xMidYMid meet"><desc style="-webkit-tap-highlight-color: rgba(0, 0, 0, 0);">Created with Raphaël 2.1.4</desc><defs style="-webkit-tap-highlight-color: rgba(0, 0, 0, 0);"><path stroke-linecap="round" d="M5,0 0,2.5 5,5z" id="raphael-marker-block" style="-webkit-tap-highlight-color: rgba(0, 0, 0, 0);"></path><marker id="raphael-marker-endblock33-obj43" markerHeight="3" markerWidth="3" orient="auto" refX="1.5" refY="1.5" style="-webkit-tap-highlight-color: rgba(0, 0, 0, 0);"><use xlink:href="#raphael-marker-block" transform="rotate(180 1.5 1.5) scale(0.6,0.6)" stroke-width="1.6667" fill="black" stroke="none" style="-webkit-tap-highlight-color: rgba(0, 0, 0, 0);"></use></marker><marker id="raphael-marker-endblock33-obj44" markerHeight="3" markerWidth="3" orient="auto" refX="1.5" refY="1.5" style="-webkit-tap-highlight-color: rgba(0, 0, 0, 0);"><use xlink:href="#raphael-marker-block" transform="rotate(180 1.5 1.5) scale(0.6,0.6)" stroke-width="1.6667" fill="black" stroke="none" style="-webkit-tap-highlight-color: rgba(0, 0, 0, 0);"></use></marker><marker id="raphael-marker-endblock33-obj45" markerHeight="3" markerWidth="3" orient="auto" refX="1.5" refY="1.5" style="-webkit-tap-highlight-color: rgba(0, 0, 0, 0);"><use xlink:href="#raphael-marker-block" transform="rotate(180 1.5 1.5) scale(0.6,0.6)" stroke-width="1.6667" fill="black" stroke="none" style="-webkit-tap-highlight-color: rgba(0, 0, 0, 0);"></use></marker><marker id="raphael-marker-endblock33-obj46" markerHeight="3" markerWidth="3" orient="auto" refX="1.5" refY="1.5" style="-webkit-tap-highlight-color: rgba(0, 0, 0, 0);"><use xlink:href="#raphael-marker-block" transform="rotate(180 1.5 1.5) scale(0.6,0.6)" stroke-width="1.6667" fill="black" stroke="none" style="-webkit-tap-highlight-color: rgba(0, 0, 0, 0);"></use></marker><marker id="raphael-marker-endblock33-obj47" markerHeight="3" markerWidth="3" orient="auto" refX="1.5" refY="1.5" style="-webkit-tap-highlight-color: rgba(0, 0, 0, 0);"><use xlink:href="#raphael-marker-block" transform="rotate(180 1.5 1.5) scale(0.6,0.6)" stroke-width="1.6667" fill="black" stroke="none" style="-webkit-tap-highlight-color: rgba(0, 0, 0, 0);"></use></marker><marker id="raphael-marker-endblock33-obj48" markerHeight="3" markerWidth="3" orient="auto" refX="1.5" refY="1.5" style="-webkit-tap-highlight-color: rgba(0, 0, 0, 0);"><use xlink:href="#raphael-marker-block" transform="rotate(180 1.5 1.5) scale(0.6,0.6)" stroke-width="1.6667" fill="black" stroke="none" style="-webkit-tap-highlight-color: rgba(0, 0, 0, 0);"></use></marker><marker id="raphael-marker-endblock33-obj49" markerHeight="3" markerWidth="3" orient="auto" refX="1.5" refY="1.5" style="-webkit-tap-highlight-color: rgba(0, 0, 0, 0);"><use xlink:href="#raphael-marker-block" transform="rotate(180 1.5 1.5) scale(0.6,0.6)" stroke-width="1.6667" fill="black" stroke="none" style="-webkit-tap-highlight-color: rgba(0, 0, 0, 0);"></use></marker><marker id="raphael-marker-endblock33-obj50" markerHeight="3" markerWidth="3" orient="auto" refX="1.5" refY="1.5" style="-webkit-tap-highlight-color: rgba(0, 0, 0, 0);"><use xlink:href="#raphael-marker-block" transform="rotate(180 1.5 1.5) scale(0.6,0.6)" stroke-width="1.6667" fill="black" stroke="none" style="-webkit-tap-highlight-color: rgba(0, 0, 0, 0);"></use></marker><marker id="raphael-marker-endblock33-obj51" markerHeight="3" markerWidth="3" orient="auto" refX="1.5" refY="1.5" style="-webkit-tap-highlight-color: rgba(0, 0, 0, 0);"><use xlink:href="#raphael-marker-block" transform="rotate(180 1.5 1.5) scale(0.6,0.6)" stroke-width="1.6667" fill="black" stroke="none" style="-webkit-tap-highlight-color: rgba(0, 0, 0, 0);"></use></marker><marker id="raphael-marker-endblock33-obj52" markerHeight="3" markerWidth="3" orient="auto" refX="1.5" refY="1.5" style="-webkit-tap-highlight-color: rgba(0, 0, 0, 0);"><use xlink:href="#raphael-marker-block" transform="rotate(180 1.5 1.5) scale(0.6,0.6)" stroke-width="1.6667" fill="black" stroke="none" style="-webkit-tap-highlight-color: rgba(0, 0, 0, 0);"></use></marker><marker id="raphael-marker-endblock33-obj53" markerHeight="3" markerWidth="3" orient="auto" refX="1.5" refY="1.5" style="-webkit-tap-highlight-color: rgba(0, 0, 0, 0);"><use xlink:href="#raphael-marker-block" transform="rotate(180 1.5 1.5) scale(0.6,0.6)" stroke-width="1.6667" fill="black" stroke="none" style="-webkit-tap-highlight-color: rgba(0, 0, 0, 0);"></use></marker><marker id="raphael-marker-endblock33-obj54" markerHeight="3" markerWidth="3" orient="auto" refX="1.5" refY="1.5" style="-webkit-tap-highlight-color: rgba(0, 0, 0, 0);"><use xlink:href="#raphael-marker-block" transform="rotate(180 1.5 1.5) scale(0.6,0.6)" stroke-width="1.6667" fill="black" stroke="none" style="-webkit-tap-highlight-color: rgba(0, 0, 0, 0);"></use></marker><marker id="raphael-marker-endblock33-obj55" markerHeight="3" markerWidth="3" orient="auto" refX="1.5" refY="1.5" style="-webkit-tap-highlight-color: rgba(0, 0, 0, 0);"><use xlink:href="#raphael-marker-block" transform="rotate(180 1.5 1.5) scale(0.6,0.6)" stroke-width="1.6667" fill="black" stroke="none" style="-webkit-tap-highlight-color: rgba(0, 0, 0, 0);"></use></marker><marker id="raphael-marker-endblock33-obj56" markerHeight="3" markerWidth="3" orient="auto" refX="1.5" refY="1.5" style="-webkit-tap-highlight-color: rgba(0, 0, 0, 0);"><use xlink:href="#raphael-marker-block" transform="rotate(180 1.5 1.5) scale(0.6,0.6)" stroke-width="1.6667" fill="black" stroke="none" style="-webkit-tap-highlight-color: rgba(0, 0, 0, 0);"></use></marker><marker id="raphael-marker-endblock33-obj57" markerHeight="3" markerWidth="3" orient="auto" refX="1.5" refY="1.5" style="-webkit-tap-highlight-color: rgba(0, 0, 0, 0);"><use xlink:href="#raphael-marker-block" transform="rotate(180 1.5 1.5) scale(0.6,0.6)" stroke-width="1.6667" fill="black" stroke="none" style="-webkit-tap-highlight-color: rgba(0, 0, 0, 0);"></use></marker><marker id="raphael-marker-endblock33-obj58" markerHeight="3" markerWidth="3" orient="auto" refX="1.5" refY="1.5" style="-webkit-tap-highlight-color: rgba(0, 0, 0, 0);"><use xlink:href="#raphael-marker-block" transform="rotate(180 1.5 1.5) scale(0.6,0.6)" stroke-width="1.6667" fill="black" stroke="none" style="-webkit-tap-highlight-color: rgba(0, 0, 0, 0);"></use></marker><marker id="raphael-marker-endblock33-obj60" markerHeight="3" markerWidth="3" orient="auto" refX="1.5" refY="1.5" style="-webkit-tap-highlight-color: rgba(0, 0, 0, 0);"><use xlink:href="#raphael-marker-block" transform="rotate(180 1.5 1.5) scale(0.6,0.6)" stroke-width="1.6667" fill="black" stroke="none" style="-webkit-tap-highlight-color: rgba(0, 0, 0, 0);"></use></marker><marker id="raphael-marker-endblock33-obj62" markerHeight="3" markerWidth="3" orient="auto" refX="1.5" refY="1.5" style="-webkit-tap-highlight-color: rgba(0, 0, 0, 0);"><use xlink:href="#raphael-marker-block" transform="rotate(180 1.5 1.5) scale(0.6,0.6)" stroke-width="1.6667" fill="black" stroke="none" style="-webkit-tap-highlight-color: rgba(0, 0, 0, 0);"></use></marker><marker id="raphael-marker-endblock33-obj63" markerHeight="3" markerWidth="3" orient="auto" refX="1.5" refY="1.5" style="-webkit-tap-highlight-color: rgba(0, 0, 0, 0);"><use xlink:href="#raphael-marker-block" transform="rotate(180 1.5 1.5) scale(0.6,0.6)" stroke-width="1.6667" fill="black" stroke="none" style="-webkit-tap-highlight-color: rgba(0, 0, 0, 0);"></use></marker><marker id="raphael-marker-endblock33-obj64" markerHeight="3" markerWidth="3" orient="auto" refX="1.5" refY="1.5" style="-webkit-tap-highlight-color: rgba(0, 0, 0, 0);"><use xlink:href="#raphael-marker-block" transform="rotate(180 1.5 1.5) scale(0.6,0.6)" stroke-width="1.6667" fill="black" stroke="none" style="-webkit-tap-highlight-color: rgba(0, 0, 0, 0);"></use></marker><marker id="raphael-marker-endblock33-obj65" markerHeight="3" markerWidth="3" orient="auto" refX="1.5" refY="1.5" style="-webkit-tap-highlight-color: rgba(0, 0, 0, 0);"><use xlink:href="#raphael-marker-block" transform="rotate(180 1.5 1.5) scale(0.6,0.6)" stroke-width="1.6667" fill="black" stroke="none" style="-webkit-tap-highlight-color: rgba(0, 0, 0, 0);"></use></marker></defs><rect x="0" y="0" width="625.125" height="36" rx="0" ry="0" fill="#ffffff" stroke="#000000" style="-webkit-tap-highlight-color: rgba(0, 0, 0, 0);" stroke-width="3" class="flowchart" id="op2" transform="matrix(1,0,0,1,6,40.8926)"></rect><text x="10" y="18" text-anchor="start" font-family="&quot;Arial&quot;" font-size="14px" stroke="none" fill="#000000" style="-webkit-tap-highlight-color: rgba(0, 0, 0, 0); text-anchor: start; font-family: Arial; font-size: 14px;" id="op2t" class="flowchartt" transform="matrix(1,0,0,1,6,40.8926)" stroke-width="1"><tspan dy="5" style="-webkit-tap-highlight-color: rgba(0, 0, 0, 0);">from base import alphabet, input_for_cipher_short, input_for_cipher_long, output_from_decrypted</tspan></text><rect x="0" y="0" width="95.109375" height="36" rx="0" ry="0" fill="#ffffff" stroke="#000000" style="-webkit-tap-highlight-color: rgba(0, 0, 0, 0);" stroke-width="3" class="flowchart" id="op4" transform="matrix(1,0,0,1,271.0078,167.7852)"></rect><text x="10" y="18" text-anchor="start" font-family="&quot;Arial&quot;" font-size="14px" stroke="none" fill="#000000" style="-webkit-tap-highlight-color: rgba(0, 0, 0, 0); text-anchor: start; font-family: Arial; font-size: 14px;" id="op4t" class="flowchartt" transform="matrix(1,0,0,1,271.0078,167.7852)" stroke-width="1"><tspan dy="5" style="-webkit-tap-highlight-color: rgba(0, 0, 0, 0);">import math</tspan></text><rect x="0" y="0" width="96.34375" height="36" rx="0" ry="0" fill="#ffffff" stroke="#000000" style="-webkit-tap-highlight-color: rgba(0, 0, 0, 0);" stroke-width="3" class="flowchart" id="op6" transform="matrix(1,0,0,1,270.3906,294.6777)"></rect><text x="10" y="18" text-anchor="start" font-family="&quot;Arial&quot;" font-size="14px" stroke="none" fill="#000000" style="-webkit-tap-highlight-color: rgba(0, 0, 0, 0); text-anchor: start; font-family: Arial; font-size: 14px;" id="op6t" class="flowchartt" transform="matrix(1,0,0,1,270.3906,294.6777)" stroke-width="1"><tspan dy="5" style="-webkit-tap-highlight-color: rgba(0, 0, 0, 0);">key = 'ключ'</tspan></text><rect x="0" y="0" width="186.421875" height="36" rx="20" ry="20" fill="#ffffff" stroke="#000000" style="-webkit-tap-highlight-color: rgba(0, 0, 0, 0);" stroke-width="3" class="flowchart" id="st9" transform="matrix(1,0,0,1,225.3516,421.5703)"></rect><text x="10" y="18" text-anchor="start" font-family="&quot;Arial&quot;" font-size="14px" stroke="none" fill="#000000" style="-webkit-tap-highlight-color: rgba(0, 0, 0, 0); text-anchor: start; font-family: Arial; font-size: 14px;" id="st9t" class="flowchartt" transform="matrix(1,0,0,1,225.3516,421.5703)" stroke-width="1"><tspan dy="5" style="-webkit-tap-highlight-color: rgba(0, 0, 0, 0);">start transposition_encode</tspan></text><path fill="#ffffff" stroke="#000000" d="M10,18L0,36L136.140625,36L156.140625,0L20,0L10,18" stroke-width="3" id="io11" class="flowchart" style="-webkit-tap-highlight-color: rgba(0, 0, 0, 0);" transform="matrix(1,0,0,1,240.4922,548.4629)"></path><text x="30" y="18" text-anchor="start" font-family="&quot;Arial&quot;" font-size="14px" stroke="none" fill="#000000" style="-webkit-tap-highlight-color: rgba(0, 0, 0, 0); text-anchor: start; font-family: Arial; font-size: 14px;" id="io11t" class="flowchartt" transform="matrix(1,0,0,1,240.4922,548.4629)" stroke-width="1"><tspan dy="5" style="-webkit-tap-highlight-color: rgba(0, 0, 0, 0);">input: msg, key</tspan></text><rect x="0" y="0" width="80.75" height="36" rx="0" ry="0" fill="#ffffff" stroke="#000000" style="-webkit-tap-highlight-color: rgba(0, 0, 0, 0);" stroke-width="3" class="flowchart" id="op14" transform="matrix(1,0,0,1,278.1875,675.3555)"></rect><text x="10" y="18" text-anchor="start" font-family="&quot;Arial&quot;" font-size="14px" stroke="none" fill="#000000" style="-webkit-tap-highlight-color: rgba(0, 0, 0, 0); text-anchor: start; font-family: Arial; font-size: 14px;" id="op14t" class="flowchartt" transform="matrix(1,0,0,1,278.1875,675.3555)" stroke-width="1"><tspan dy="5" style="-webkit-tap-highlight-color: rgba(0, 0, 0, 0);">cipher = ''</tspan></text><rect x="0" y="0" width="86.421875" height="36" rx="0" ry="0" fill="#ffffff" stroke="#000000" style="-webkit-tap-highlight-color: rgba(0, 0, 0, 0);" stroke-width="3" class="flowchart" id="op16" transform="matrix(1,0,0,1,275.3516,802.248)"></rect><text x="10" y="18" text-anchor="start" font-family="&quot;Arial&quot;" font-size="14px" stroke="none" fill="#000000" style="-webkit-tap-highlight-color: rgba(0, 0, 0, 0); text-anchor: start; font-family: Arial; font-size: 14px;" id="op16t" class="flowchartt" transform="matrix(1,0,0,1,275.3516,802.248)" stroke-width="1"><tspan dy="5" style="-webkit-tap-highlight-color: rgba(0, 0, 0, 0);">k_indx = 0</tspan></text><rect x="0" y="0" width="180.4375" height="36" rx="0" ry="0" fill="#ffffff" stroke="#000000" style="-webkit-tap-highlight-color: rgba(0, 0, 0, 0);" stroke-width="3" class="flowchart" id="op18" transform="matrix(1,0,0,1,228.3438,929.1406)"></rect><text x="10" y="18" text-anchor="start" font-family="&quot;Arial&quot;" font-size="14px" stroke="none" fill="#000000" style="-webkit-tap-highlight-color: rgba(0, 0, 0, 0); text-anchor: start; font-family: Arial; font-size: 14px;" id="op18t" class="flowchartt" transform="matrix(1,0,0,1,228.3438,929.1406)" stroke-width="1"><tspan dy="5" style="-webkit-tap-highlight-color: rgba(0, 0, 0, 0);">msg_len = float(len(msg))</tspan></text><rect x="0" y="0" width="138.40625" height="36" rx="0" ry="0" fill="#ffffff" stroke="#000000" style="-webkit-tap-highlight-color: rgba(0, 0, 0, 0);" stroke-width="3" class="flowchart" id="op20" transform="matrix(1,0,0,1,249.3594,1056.0332)"></rect><text x="10" y="18" text-anchor="start" font-family="&quot;Arial&quot;" font-size="14px" stroke="none" fill="#000000" style="-webkit-tap-highlight-color: rgba(0, 0, 0, 0); text-anchor: start; font-family: Arial; font-size: 14px;" id="op20t" class="flowchartt" transform="matrix(1,0,0,1,249.3594,1056.0332)" stroke-width="1"><tspan dy="5" style="-webkit-tap-highlight-color: rgba(0, 0, 0, 0);">msg_lst = list(msg)</tspan></text><rect x="0" y="0" width="177.3125" height="36" rx="0" ry="0" fill="#ffffff" stroke="#000000" style="-webkit-tap-highlight-color: rgba(0, 0, 0, 0);" stroke-width="3" class="flowchart" id="op22" transform="matrix(1,0,0,1,229.9063,1182.9258)"></rect><text x="10" y="18" text-anchor="start" font-family="&quot;Arial&quot;" font-size="14px" stroke="none" fill="#000000" style="-webkit-tap-highlight-color: rgba(0, 0, 0, 0); text-anchor: start; font-family: Arial; font-size: 14px;" id="op22t" class="flowchartt" transform="matrix(1,0,0,1,229.9063,1182.9258)" stroke-width="1"><tspan dy="5" style="-webkit-tap-highlight-color: rgba(0, 0, 0, 0);">key_lst = sorted(list(key))</tspan></text><rect x="0" y="0" width="104.96875" height="36" rx="0" ry="0" fill="#ffffff" stroke="#000000" style="-webkit-tap-highlight-color: rgba(0, 0, 0, 0);" stroke-width="3" class="flowchart" id="op24" transform="matrix(1,0,0,1,266.0781,1309.8184)"></rect><text x="10" y="18" text-anchor="start" font-family="&quot;Arial&quot;" font-size="14px" stroke="none" fill="#000000" style="-webkit-tap-highlight-color: rgba(0, 0, 0, 0); text-anchor: start; font-family: Arial; font-size: 14px;" id="op24t" class="flowchartt" transform="matrix(1,0,0,1,266.0781,1309.8184)" stroke-width="1"><tspan dy="5" style="-webkit-tap-highlight-color: rgba(0, 0, 0, 0);">col = len(key)</tspan></text><rect x="0" y="0" width="241.109375" height="36" rx="0" ry="0" fill="#ffffff" stroke="#000000" style="-webkit-tap-highlight-color: rgba(0, 0, 0, 0);" stroke-width="3" class="flowchart" id="op26" transform="matrix(1,0,0,1,198.0078,1436.7109)"></rect><text x="10" y="18" text-anchor="start" font-family="&quot;Arial&quot;" font-size="14px" stroke="none" fill="#000000" style="-webkit-tap-highlight-color: rgba(0, 0, 0, 0); text-anchor: start; font-family: Arial; font-size: 14px;" id="op26t" class="flowchartt" transform="matrix(1,0,0,1,198.0078,1436.7109)" stroke-width="1"><tspan dy="5" style="-webkit-tap-highlight-color: rgba(0, 0, 0, 0);">row = int(math.ceil((msg_len / col)))</tspan></text><rect x="0" y="0" width="241.890625" height="36" rx="0" ry="0" fill="#ffffff" stroke="#000000" style="-webkit-tap-highlight-color: rgba(0, 0, 0, 0);" stroke-width="3" class="flowchart" id="op28" transform="matrix(1,0,0,1,197.6172,1563.6035)"></rect><text x="10" y="18" text-anchor="start" font-family="&quot;Arial&quot;" font-size="14px" stroke="none" fill="#000000" style="-webkit-tap-highlight-color: rgba(0, 0, 0, 0); text-anchor: start; font-family: Arial; font-size: 14px;" id="op28t" class="flowchartt" transform="matrix(1,0,0,1,197.6172,1563.6035)" stroke-width="1"><tspan dy="5" style="-webkit-tap-highlight-color: rgba(0, 0, 0, 0);">fill_null = int(((row * col) - msg_len))</tspan></text><rect x="0" y="0" width="223.296875" height="36" rx="0" ry="0" fill="#ffffff" stroke="#000000" style="-webkit-tap-highlight-color: rgba(0, 0, 0, 0);" stroke-width="3" class="flowchart" id="sub30" transform="matrix(1,0,0,1,206.9141,1690.4961)"></rect><rect x="10" y="0" width="203.296875" height="36" rx="0" ry="0" fill="#ffffff" stroke="#000000" style="-webkit-tap-highlight-color: rgba(0, 0, 0, 0);" stroke-width="3" id="sub30i" transform="matrix(1,0,0,1,206.9141,1690.4961)"></rect><text x="20" y="18" text-anchor="start" font-family="&quot;Arial&quot;" font-size="14px" stroke="none" fill="#000000" style="-webkit-tap-highlight-color: rgba(0, 0, 0, 0); text-anchor: start; font-family: Arial; font-size: 14px;" id="sub30t" class="flowchartt" transform="matrix(1,0,0,1,206.9141,1690.4961)" stroke-width="1"><tspan dy="5" style="-webkit-tap-highlight-color: rgba(0, 0, 0, 0);">msg_lst.extend(('_' * fill_null))</tspan></text><rect x="0" y="0" width="400.765625" height="36" rx="0" ry="0" fill="#ffffff" stroke="#000000" style="-webkit-tap-highlight-color: rgba(0, 0, 0, 0);" stroke-width="3" class="flowchart" id="op32" transform="matrix(1,0,0,1,118.1797,1817.3887)"></rect><text x="10" y="18" text-anchor="start" font-family="&quot;Arial&quot;" font-size="14px" stroke="none" fill="#000000" style="-webkit-tap-highlight-color: rgba(0, 0, 0, 0); text-anchor: start; font-family: Arial; font-size: 14px;" id="op32t" class="flowchartt" transform="matrix(1,0,0,1,118.1797,1817.3887)" stroke-width="1"><tspan dy="5" style="-webkit-tap-highlight-color: rgba(0, 0, 0, 0);">matrix = [msg_lst[i:(i + col)] for i in range(0, len(msg_lst), col)]</tspan></text><path fill="#ffffff" stroke="#000000" d="M52.892578125,26.4462890625L0,52.892578125L105.78515625,105.78515625L211.5703125,52.892578125L105.78515625,0L0,52.892578125" stroke-width="3" id="cond35" class="flowchart" style="-webkit-tap-highlight-color: rgba(0, 0, 0, 0);" transform="matrix(1,0,0,1,212.7773,1909.3887)"></path><text x="57.892578125" y="52.892578125" text-anchor="start" font-family="&quot;Arial&quot;" font-size="14px" stroke="none" fill="#000000" style="-webkit-tap-highlight-color: rgba(0, 0, 0, 0); text-anchor: start; font-family: Arial; font-size: 14px;" id="cond35t" class="flowchartt" transform="matrix(1,0,0,1,212.7773,1909.3887)" stroke-width="1"><tspan dy="5.001953125" style="-webkit-tap-highlight-color: rgba(0, 0, 0, 0);">for _ in range(col)</tspan></text><rect x="0" y="0" width="246.328125" height="36" rx="0" ry="0" fill="#ffffff" stroke="#000000" style="-webkit-tap-highlight-color: rgba(0, 0, 0, 0);" stroke-width="3" class="flowchart" id="op46" transform="matrix(1,0,0,1,195.3984,2106.0664)"></rect><text x="10" y="18" text-anchor="start" font-family="&quot;Arial&quot;" font-size="14px" stroke="none" fill="#000000" style="-webkit-tap-highlight-color: rgba(0, 0, 0, 0); text-anchor: start; font-family: Arial; font-size: 14px;" id="op46t" class="flowchartt" transform="matrix(1,0,0,1,195.3984,2106.0664)" stroke-width="1"><tspan dy="5" style="-webkit-tap-highlight-color: rgba(0, 0, 0, 0);">curr_idx = key.index(key_lst[k_indx])</tspan></text><rect x="0" y="0" width="315.3125" height="36" rx="0" ry="0" fill="#ffffff" stroke="#000000" style="-webkit-tap-highlight-color: rgba(0, 0, 0, 0);" stroke-width="3" class="flowchart" id="op48" transform="matrix(1,0,0,1,160.9063,2232.959)"></rect><text x="10" y="18" text-anchor="start" font-family="&quot;Arial&quot;" font-size="14px" stroke="none" fill="#000000" style="-webkit-tap-highlight-color: rgba(0, 0, 0, 0); text-anchor: start; font-family: Arial; font-size: 14px;" id="op48t" class="flowchartt" transform="matrix(1,0,0,1,160.9063,2232.959)" stroke-width="1"><tspan dy="5" style="-webkit-tap-highlight-color: rgba(0, 0, 0, 0);">cipher += ''.join([row[curr_idx] for row in matrix])</tspan></text><rect x="0" y="0" width="94.59375" height="36" rx="0" ry="0" fill="#ffffff" stroke="#000000" style="-webkit-tap-highlight-color: rgba(0, 0, 0, 0);" stroke-width="3" class="flowchart" id="op50" transform="matrix(1,0,0,1,271.2656,2359.8516)"></rect><text x="10" y="18" text-anchor="start" font-family="&quot;Arial&quot;" font-size="14px" stroke="none" fill="#000000" style="-webkit-tap-highlight-color: rgba(0, 0, 0, 0); text-anchor: start; font-family: Arial; font-size: 14px;" id="op50t" class="flowchartt" transform="matrix(1,0,0,1,271.2656,2359.8516)" stroke-width="1"><tspan dy="5" style="-webkit-tap-highlight-color: rgba(0, 0, 0, 0);">k_indx += 1</tspan></text><path fill="#ffffff" stroke="#000000" d="M10,18L0,36L127.171875,36L147.171875,0L20,0L10,18" stroke-width="3" id="io57" class="flowchart" style="-webkit-tap-highlight-color: rgba(0, 0, 0, 0);" transform="matrix(1,0,0,1,719.3242,1944.2813)"></path><text x="30" y="18" text-anchor="start" font-family="&quot;Arial&quot;" font-size="14px" stroke="none" fill="#000000" style="-webkit-tap-highlight-color: rgba(0, 0, 0, 0); text-anchor: start; font-family: Arial; font-size: 14px;" id="io57t" class="flowchartt" transform="matrix(1,0,0,1,719.3242,1944.2813)" stroke-width="1"><tspan dy="5" style="-webkit-tap-highlight-color: rgba(0, 0, 0, 0);">output:  cipher</tspan></text><rect x="0" y="0" width="137.953125" height="36" rx="20" ry="20" fill="#ffffff" stroke="#000000" style="-webkit-tap-highlight-color: rgba(0, 0, 0, 0);" stroke-width="3" class="flowchart" id="e55" transform="matrix(1,0,0,1,723.9336,2071.1738)"></rect><text x="10" y="18" text-anchor="start" font-family="&quot;Arial&quot;" font-size="14px" stroke="none" fill="#000000" style="-webkit-tap-highlight-color: rgba(0, 0, 0, 0); text-anchor: start; font-family: Arial; font-size: 14px;" id="e55t" class="flowchartt" transform="matrix(1,0,0,1,723.9336,2071.1738)" stroke-width="1"><tspan dy="5" style="-webkit-tap-highlight-color: rgba(0, 0, 0, 0);">end function return</tspan><tspan dy="16.8" x="10" style="-webkit-tap-highlight-color: rgba(0, 0, 0, 0);"></tspan></text><path fill="none" stroke="#000000" d="M318.5625,76.892578125C318.5625,76.892578125,318.5625,144.93753648549318,318.5625,163.27777916859486" stroke-width="3" marker-end="url(#raphael-marker-endblock33-obj43)" style="-webkit-tap-highlight-color: rgba(0, 0, 0, 0);"></path><path fill="none" stroke="#000000" d="M318.5625,203.78515625C318.5625,203.78515625,318.5625,271.8301146104932,318.5625,290.17035729359486" stroke-width="3" marker-end="url(#raphael-marker-endblock33-obj44)" style="-webkit-tap-highlight-color: rgba(0, 0, 0, 0);"></path><path fill="none" stroke="#000000" d="M318.5625,330.677734375C318.5625,330.677734375,318.5625,398.7226927354932,318.5625,417.06293541859486" stroke-width="3" marker-end="url(#raphael-marker-endblock33-obj45)" style="-webkit-tap-highlight-color: rgba(0, 0, 0, 0);"></path><path fill="none" stroke="#000000" d="M318.5625,457.5703125C318.5625,457.5703125,318.5625,525.6152708604932,318.5625,543.9555135435949" stroke-width="3" marker-end="url(#raphael-marker-endblock33-obj46)" style="-webkit-tap-highlight-color: rgba(0, 0, 0, 0);"></path><path fill="none" stroke="#000000" d="M318.5625,584.462890625C318.5625,584.462890625,318.5625,652.5078489854932,318.5625,670.8480916685949" stroke-width="3" marker-end="url(#raphael-marker-endblock33-obj47)" style="-webkit-tap-highlight-color: rgba(0, 0, 0, 0);"></path><path fill="none" stroke="#000000" d="M318.5625,711.35546875C318.5625,711.35546875,318.5625,779.4004271104932,318.5625,797.7406697935949" stroke-width="3" marker-end="url(#raphael-marker-endblock33-obj48)" style="-webkit-tap-highlight-color: rgba(0, 0, 0, 0);"></path><path fill="none" stroke="#000000" d="M318.5625,838.248046875C318.5625,838.248046875,318.5625,906.2930052354932,318.5625,924.6332479185949" stroke-width="3" marker-end="url(#raphael-marker-endblock33-obj49)" style="-webkit-tap-highlight-color: rgba(0, 0, 0, 0);"></path><path fill="none" stroke="#000000" d="M318.5625,965.140625C318.5625,965.140625,318.5625,1033.1855833604932,318.5625,1051.5258260435949" stroke-width="3" marker-end="url(#raphael-marker-endblock33-obj50)" style="-webkit-tap-highlight-color: rgba(0, 0, 0, 0);"></path><path fill="none" stroke="#000000" d="M318.5625,1092.033203125C318.5625,1092.033203125,318.5625,1160.0781614854932,318.5625,1178.4184041685949" stroke-width="3" marker-end="url(#raphael-marker-endblock33-obj51)" style="-webkit-tap-highlight-color: rgba(0, 0, 0, 0);"></path><path fill="none" stroke="#000000" d="M318.5625,1218.92578125C318.5625,1218.92578125,318.5625,1286.9707396104932,318.5625,1305.3109822935949" stroke-width="3" marker-end="url(#raphael-marker-endblock33-obj52)" style="-webkit-tap-highlight-color: rgba(0, 0, 0, 0);"></path><path fill="none" stroke="#000000" d="M318.5625,1345.818359375C318.5625,1345.818359375,318.5625,1413.8633177354932,318.5625,1432.2035604185949" stroke-width="3" marker-end="url(#raphael-marker-endblock33-obj53)" style="-webkit-tap-highlight-color: rgba(0, 0, 0, 0);"></path><path fill="none" stroke="#000000" d="M318.5625,1472.7109375C318.5625,1472.7109375,318.5625,1540.7558958604932,318.5625,1559.0961385435949" stroke-width="3" marker-end="url(#raphael-marker-endblock33-obj54)" style="-webkit-tap-highlight-color: rgba(0, 0, 0, 0);"></path><path fill="none" stroke="#000000" d="M318.5625,1599.603515625C318.5625,1599.603515625,318.5625,1667.6484739854932,318.5625,1685.9887166685949" stroke-width="3" marker-end="url(#raphael-marker-endblock33-obj55)" style="-webkit-tap-highlight-color: rgba(0, 0, 0, 0);"></path><path fill="none" stroke="#000000" d="M318.5625,1726.49609375C318.5625,1726.49609375,318.5625,1794.5410521104932,318.5625,1812.8812947935949" stroke-width="3" marker-end="url(#raphael-marker-endblock33-obj56)" style="-webkit-tap-highlight-color: rgba(0, 0, 0, 0);"></path><path fill="none" stroke="#000000" d="M318.5625,1853.388671875C318.5625,1853.388671875,318.5625,1891.58944272995,318.5625,1904.8888321926352" stroke-width="3" marker-end="url(#raphael-marker-endblock33-obj57)" style="-webkit-tap-highlight-color: rgba(0, 0, 0, 0);"></path><path fill="none" stroke="#000000" d="M318.5625,2015.173828125C318.5625,2015.173828125,318.5625,2083.218786485493,318.5625,2101.559029168595" stroke-width="3" marker-end="url(#raphael-marker-endblock33-obj58)" style="-webkit-tap-highlight-color: rgba(0, 0, 0, 0);"></path><text x="323.5625" y="2025.173828125" text-anchor="start" font-family="&quot;Arial&quot;" font-size="14px" stroke="none" fill="#000000" style="-webkit-tap-highlight-color: rgba(0, 0, 0, 0); text-anchor: start; font-family: Arial; font-size: 14px;" stroke-width="1"><tspan dy="5.001953125" style="-webkit-tap-highlight-color: rgba(0, 0, 0, 0);">yes</tspan></text><path fill="none" stroke="#000000" d="M424.34765625,1962.28125C424.34765625,1962.28125,687.0455306476215,1962.28125,724.8211771369279,1962.28125" stroke-width="3" marker-end="url(#raphael-marker-endblock33-obj60)" style="-webkit-tap-highlight-color: rgba(0, 0, 0, 0);"></path><text x="429.34765625" y="1952.28125" text-anchor="start" font-family="&quot;Arial&quot;" font-size="14px" stroke="none" fill="#000000" style="-webkit-tap-highlight-color: rgba(0, 0, 0, 0); text-anchor: start; font-family: Arial; font-size: 14px;" stroke-width="1"><tspan dy="5" style="-webkit-tap-highlight-color: rgba(0, 0, 0, 0);">no</tspan></text><path fill="none" stroke="#000000" d="M318.5625,2142.06640625C318.5625,2142.06640625,318.5625,2210.111364610493,318.5625,2228.451607293595" stroke-width="3" marker-end="url(#raphael-marker-endblock33-obj62)" style="-webkit-tap-highlight-color: rgba(0, 0, 0, 0);"></path><path fill="none" stroke="#000000" d="M318.5625,2268.958984375C318.5625,2268.958984375,318.5625,2337.003942735493,318.5625,2355.344185418595" stroke-width="3" marker-end="url(#raphael-marker-endblock33-obj63)" style="-webkit-tap-highlight-color: rgba(0, 0, 0, 0);"></path><path fill="none" stroke="#000000" d="M271.265625,2377.8515625C271.265625,2377.8515625,187.77734375,2377.8515625,187.77734375,2377.8515625C187.77734375,2377.8515625,187.77734375,1884.388671875,187.77734375,1884.388671875C187.77734375,1884.388671875,318.5625,1884.388671875,318.5625,1884.388671875C318.5625,1884.388671875,318.5625,1897.6926431655884,318.5625,1904.890299508348" stroke-width="3" marker-end="url(#raphael-marker-endblock33-obj64)" style="-webkit-tap-highlight-color: rgba(0, 0, 0, 0);"></path><path fill="none" stroke="#000000" d="M792.91015625,1980.28125C792.91015625,1980.28125,792.91015625,2048.326208360493,792.91015625,2066.666451043595" stroke-width="3" marker-end="url(#raphael-marker-endblock33-obj65)" style="-webkit-tap-highlight-color: rgba(0, 0, 0, 0);"></path></svg>