<?xml version="1.0" encoding="UTF-8" standalone="no"?>
<svg width="242.006mm" height="143.581mm"
 xmlns="http://www.w3.org/2000/svg" xmlns:xlink="http://www.w3.org/1999/xlink"  version="1.2" baseProfile="tiny">
<title>Qt SVG Document</title>
<desc>Generated with Qt</desc>
<defs>
</defs>
<g fill="none" stroke="black" stroke-width="1" fill-rule="evenodd" stroke-linecap="square" stroke-linejoin="bevel" >

<g fill="none" stroke="#000000" stroke-opacity="1" stroke-width="1" stroke-linecap="square" stroke-linejoin="bevel" transform="matrix(1,0,0,1,0,0)"
font-family="MesloLGS NF" font-size="10" font-weight="400" font-style="normal" 
>
</g>

<g fill="none" stroke="#000000" stroke-opacity="1" stroke-width="1" stroke-linecap="square" stroke-linejoin="bevel" transform="matrix(1,0,0,1,0,0)"
font-family="MesloLGS NF" font-size="10" font-weight="400" font-style="normal" 
>
</g>

<g fill="#ffffff" fill-opacity="1" stroke="#969696" stroke-opacity="1" stroke-width="1" stroke-linecap="square" stroke-linejoin="round" transform="matrix(1,0,0,1,0,0)"
font-family="MesloLGS NF" font-size="10" font-weight="400" font-style="normal" 
>
<path vector-effect="none" fill-rule="evenodd" d="M6,36 C6,33.7909 7.79086,32 10,32 L676,32 C678.209,32 680,33.7909 680,36 L680,399 C680,401.209 678.209,403 676,403 L10,403 C7.79086,403 6,401.209 6,399 L6,36"/>
</g>

<g fill="none" stroke="#000000" stroke-opacity="1" stroke-width="1" stroke-linecap="square" stroke-linejoin="bevel" transform="matrix(1,0,0,1,0,0)"
font-family="MesloLGS NF" font-size="10" font-weight="400" font-style="normal" 
>
</g>

<g fill="none" stroke="#000000" stroke-opacity="1" stroke-width="1" stroke-linecap="square" stroke-linejoin="bevel" transform="matrix(1,0,0,1,3,6)"
font-family="MesloLGS NF" font-size="10" font-weight="400" font-style="normal" 
>
</g>

<g fill="#e6e6e6" fill-opacity="1" stroke="#969696" stroke-opacity="1" stroke-width="1" stroke-linecap="square" stroke-linejoin="bevel" transform="matrix(1,0,0,1,3,6)"
font-family="MesloLGS NF" font-size="10" font-weight="400" font-style="normal" 
>
<path vector-effect="none" fill-rule="evenodd" d="M3,8 C3,6.89543 3.89543,6 5,6 L49,6 C50.1046,6 51,6.89543 51,8 L51,21 C51,22.1046 50.1046,23 49,23 L5,23 C3.89543,23 3,22.1046 3,21 L3,8"/>
</g>

<g fill="#e6e6e6" fill-opacity="1" stroke="#000000" stroke-opacity="1" stroke-width="1" stroke-linecap="square" stroke-linejoin="bevel" transform="matrix(1,0,0,1,3,6)"
font-family="Monospace" font-size="9" font-weight="400" font-style="normal" 
>
<text fill="#000000" fill-opacity="1" stroke="none" xml:space="preserve" x="10.7813" y="17.5" font-family="Monospace" font-size="9" font-weight="400" font-style="normal" 
 >module</text>
</g>

<g fill="none" stroke="#000000" stroke-opacity="1" stroke-width="1" stroke-linecap="square" stroke-linejoin="bevel" transform="matrix(1,0,0,1,3,6)"
font-family="MesloLGS NF" font-size="10" font-weight="400" font-style="normal" 
>
</g>

<g fill="none" stroke="#000000" stroke-opacity="1" stroke-width="1" stroke-linecap="square" stroke-linejoin="bevel" transform="matrix(1,0,0,1,0,0)"
font-family="MesloLGS NF" font-size="10" font-weight="400" font-style="normal" 
>
</g>

<g fill="#ffffff" fill-opacity="1" stroke="#969696" stroke-opacity="1" stroke-width="1" stroke-linecap="square" stroke-linejoin="bevel" transform="matrix(1,0,0,1,0,0)"
font-family="MesloLGS NF" font-size="10" font-weight="400" font-style="normal" 
>
<polyline fill="none" vector-effect="none" points="6,78 680,78 " />
</g>

<g fill="#ffffff" fill-opacity="1" stroke="#000000" stroke-opacity="1" stroke-width="1" stroke-linecap="square" stroke-linejoin="bevel" transform="matrix(1,0,0,1,0,0)"
font-family="Monospace" font-size="12" font-weight="400" font-style="normal" 
>
<text fill="#000000" fill-opacity="1" stroke="none" xml:space="preserve" x="10" y="48" font-family="Monospace" font-size="12" font-weight="400" font-style="normal" 
 >Shebang line: not specified</text>
<text fill="#000000" fill-opacity="1" stroke="none" xml:space="preserve" x="10" y="62" font-family="Monospace" font-size="12" font-weight="400" font-style="normal" 
 >Encoding: not specified</text>
</g>

<g fill="none" stroke="#000000" stroke-opacity="1" stroke-width="1" stroke-linecap="square" stroke-linejoin="bevel" transform="matrix(1,0,0,1,0,0)"
font-family="MesloLGS NF" font-size="10" font-weight="400" font-style="normal" 
>
</g>

<g fill="none" stroke="#000000" stroke-opacity="1" stroke-width="1" stroke-linecap="square" stroke-linejoin="bevel" transform="matrix(1,0,0,1,0,0)"
font-family="MesloLGS NF" font-size="10" font-weight="400" font-style="normal" 
>
</g>

<g fill="none" stroke="#848484" stroke-opacity="1" stroke-width="1" stroke-linecap="butt" stroke-linejoin="round" transform="matrix(1,0,0,1,0,0)"
font-family="MesloLGS NF" font-size="10" font-weight="400" font-style="normal" 
>
<path vector-effect="none" fill-rule="evenodd" d="M35,86 L35,90"/>
</g>

<g fill="none" stroke="#000000" stroke-opacity="1" stroke-width="1" stroke-linecap="square" stroke-linejoin="bevel" transform="matrix(1,0,0,1,0,0)"
font-family="MesloLGS NF" font-size="10" font-weight="400" font-style="normal" 
>
</g>

<g fill="none" stroke="#000000" stroke-opacity="1" stroke-width="1" stroke-linecap="square" stroke-linejoin="bevel" transform="matrix(1,0,0,1,0,0)"
font-family="MesloLGS NF" font-size="10" font-weight="400" font-style="normal" 
>
</g>

<g fill="none" stroke="#848484" stroke-opacity="1" stroke-width="1" stroke-linecap="butt" stroke-linejoin="round" transform="matrix(1,0,0,1,0,0)"
font-family="MesloLGS NF" font-size="10" font-weight="400" font-style="normal" 
>
<path vector-effect="none" fill-rule="evenodd" d="M35,114 L35,321"/>
</g>

<g fill="none" stroke="#000000" stroke-opacity="1" stroke-width="1" stroke-linecap="square" stroke-linejoin="bevel" transform="matrix(1,0,0,1,0,0)"
font-family="MesloLGS NF" font-size="10" font-weight="400" font-style="normal" 
>
</g>

<g fill="none" stroke="#000000" stroke-opacity="1" stroke-width="1" stroke-linecap="square" stroke-linejoin="bevel" transform="matrix(1,0,0,1,0,0)"
font-family="MesloLGS NF" font-size="10" font-weight="400" font-style="normal" 
>
</g>

<g fill="#f0f0ff" fill-opacity="1" stroke="#969696" stroke-opacity="1" stroke-width="1" stroke-linecap="square" stroke-linejoin="round" transform="matrix(1,0,0,1,0,0)"
font-family="MesloLGS NF" font-size="10" font-weight="400" font-style="normal" 
>
<path vector-effect="none" fill-rule="evenodd" d="M16,114 C16,111.791 17.7909,110 20,110 L666,110 C668.209,110 670,111.791 670,114 L670,313 C670,315.209 668.209,317 666,317 L20,317 C17.7909,317 16,315.209 16,313 L16,114"/>
</g>

<g fill="none" stroke="#000000" stroke-opacity="1" stroke-width="1" stroke-linecap="square" stroke-linejoin="bevel" transform="matrix(1,0,0,1,0,0)"
font-family="MesloLGS NF" font-size="10" font-weight="400" font-style="normal" 
>
</g>

<g fill="none" stroke="#000000" stroke-opacity="1" stroke-width="1" stroke-linecap="square" stroke-linejoin="bevel" transform="matrix(1,0,0,1,8,45)"
font-family="MesloLGS NF" font-size="10" font-weight="400" font-style="normal" 
>
</g>

<g fill="#e6e6e6" fill-opacity="1" stroke="#969696" stroke-opacity="1" stroke-width="1" stroke-linecap="square" stroke-linejoin="bevel" transform="matrix(1,0,0,1,8,45)"
font-family="MesloLGS NF" font-size="10" font-weight="400" font-style="normal" 
>
<path vector-effect="none" fill-rule="evenodd" d="M8,47 C8,45.8954 8.89543,45 10,45 L32,45 C33.1046,45 34,45.8954 34,47 L34,60 C34,61.1046 33.1046,62 32,62 L10,62 C8.89543,62 8,61.1046 8,60 L8,47"/>
</g>

<g fill="#e6e6e6" fill-opacity="1" stroke="#000000" stroke-opacity="1" stroke-width="1" stroke-linecap="square" stroke-linejoin="bevel" transform="matrix(1,0,0,1,8,45)"
font-family="Monospace" font-size="9" font-weight="400" font-style="normal" 
>
<text fill="#000000" fill-opacity="1" stroke="none" xml:space="preserve" x="12.8906" y="56.5" font-family="Monospace" font-size="9" font-weight="400" font-style="normal" 
 >def</text>
</g>

<g fill="none" stroke="#000000" stroke-opacity="1" stroke-width="1" stroke-linecap="square" stroke-linejoin="bevel" transform="matrix(1,0,0,1,8,45)"
font-family="MesloLGS NF" font-size="10" font-weight="400" font-style="normal" 
>
</g>

<g fill="none" stroke="#000000" stroke-opacity="1" stroke-width="1" stroke-linecap="square" stroke-linejoin="bevel" transform="matrix(1,0,0,1,0,0)"
font-family="MesloLGS NF" font-size="10" font-weight="400" font-style="normal" 
>
</g>

<g fill="#f0f0ff" fill-opacity="1" stroke="#969696" stroke-opacity="1" stroke-width="1" stroke-linecap="square" stroke-linejoin="bevel" transform="matrix(1,0,0,1,0,0)"
font-family="MesloLGS NF" font-size="10" font-weight="400" font-style="normal" 
>
<polyline fill="none" vector-effect="none" points="16,137 670,137 " />
</g>

<g fill="#f0f0ff" fill-opacity="1" stroke="#000000" stroke-opacity="1" stroke-width="1" stroke-linecap="square" stroke-linejoin="bevel" transform="matrix(1,0,0,1,0,0)"
font-family="Monospace" font-size="12" font-weight="400" font-style="normal" 
>
<text fill="#000000" fill-opacity="1" stroke="none" xml:space="preserve" x="20" y="126" font-family="Monospace" font-size="12" font-weight="400" font-style="normal" 
 >main()</text>
</g>

<g fill="none" stroke="#000000" stroke-opacity="1" stroke-width="1" stroke-linecap="square" stroke-linejoin="bevel" transform="matrix(1,0,0,1,0,0)"
font-family="MesloLGS NF" font-size="10" font-weight="400" font-style="normal" 
>
</g>

<g fill="none" stroke="#000000" stroke-opacity="1" stroke-width="1" stroke-linecap="square" stroke-linejoin="bevel" transform="matrix(1,0,0,1,0,0)"
font-family="MesloLGS NF" font-size="10" font-weight="400" font-style="normal" 
>
</g>

<g fill="none" stroke="#848484" stroke-opacity="1" stroke-width="1" stroke-linecap="butt" stroke-linejoin="round" transform="matrix(1,0,0,1,0,0)"
font-family="MesloLGS NF" font-size="10" font-weight="400" font-style="normal" 
>
<path vector-effect="none" fill-rule="evenodd" d="M45,145 L45,313"/>
</g>

<g fill="none" stroke="#000000" stroke-opacity="1" stroke-width="1" stroke-linecap="square" stroke-linejoin="bevel" transform="matrix(1,0,0,1,0,0)"
font-family="MesloLGS NF" font-size="10" font-weight="400" font-style="normal" 
>
</g>

<g fill="none" stroke="#000000" stroke-opacity="1" stroke-width="1" stroke-linecap="square" stroke-linejoin="bevel" transform="matrix(1,0,0,1,0,0)"
font-family="MesloLGS NF" font-size="10" font-weight="400" font-style="normal" 
>
</g>

<g fill="#f8f8f8" fill-opacity="1" stroke="#969696" stroke-opacity="1" stroke-width="1" stroke-linecap="square" stroke-linejoin="round" transform="matrix(1,0,0,1,0,0)"
font-family="MesloLGS NF" font-size="10" font-weight="400" font-style="normal" 
>
<rect x="26" y="149" width="634" height="160"/>
</g>

<g fill="#f8f8f8" fill-opacity="1" stroke="#000000" stroke-opacity="1" stroke-width="1" stroke-linecap="square" stroke-linejoin="bevel" transform="matrix(1,0,0,1,0,0)"
font-family="Monospace" font-size="12" font-weight="400" font-style="normal" 
>
<text fill="#000000" fill-opacity="1" stroke="none" xml:space="preserve" x="30" y="165" font-family="Monospace" font-size="12" font-weight="400" font-style="normal" 
 >a = int(input(&quot;</text>
<text fill="#000000" fill-opacity="1" stroke="none" xml:space="preserve" x="138.281" y="165" font-family="Monospace" font-size="12" font-weight="400" font-style="normal" 
 >Введите число а: &quot;))</text>
<text fill="#000000" fill-opacity="1" stroke="none" xml:space="preserve" x="30" y="179" font-family="Monospace" font-size="12" font-weight="400" font-style="normal" 
 >n = int(input(&quot;</text>
<text fill="#000000" fill-opacity="1" stroke="none" xml:space="preserve" x="138.281" y="179" font-family="Monospace" font-size="12" font-weight="400" font-style="normal" 
 >Введите число </text>
<text fill="#000000" fill-opacity="1" stroke="none" xml:space="preserve" x="239.344" y="179" font-family="Monospace" font-size="12" font-weight="400" font-style="normal" 
 >n, n </text>
<text fill="#000000" fill-opacity="1" stroke="none" xml:space="preserve" x="275.438" y="179" font-family="Monospace" font-size="12" font-weight="400" font-style="normal" 
 >должно быть больше </text>
<text fill="#000000" fill-opacity="1" stroke="none" xml:space="preserve" x="412.594" y="179" font-family="Monospace" font-size="12" font-weight="400" font-style="normal" 
 >a: &quot;))</text>
<text fill="#000000" fill-opacity="1" stroke="none" xml:space="preserve" x="30" y="193" font-family="Monospace" font-size="12" font-weight="400" font-style="normal" 
 >ka = int(input(&quot;</text>
<text fill="#000000" fill-opacity="1" stroke="none" xml:space="preserve" x="145.5" y="193" font-family="Monospace" font-size="12" font-weight="400" font-style="normal" 
 >Введите число </text>
<text fill="#000000" fill-opacity="1" stroke="none" xml:space="preserve" x="246.563" y="193" font-family="Monospace" font-size="12" font-weight="400" font-style="normal" 
 >ka: &quot;))</text>
<text fill="#000000" fill-opacity="1" stroke="none" xml:space="preserve" x="30" y="207" font-family="Monospace" font-size="12" font-weight="400" font-style="normal" 
 >Ya = a**ka % n</text>
<text fill="#000000" fill-opacity="1" stroke="none" xml:space="preserve" x="30" y="221" font-family="Monospace" font-size="12" font-weight="400" font-style="normal" 
 >print (&quot;</text>
<text fill="#000000" fill-opacity="1" stroke="none" xml:space="preserve" x="87.75" y="221" font-family="Monospace" font-size="12" font-weight="400" font-style="normal" 
 >Ваш </text>
<text fill="#000000" fill-opacity="1" stroke="none" xml:space="preserve" x="116.625" y="221" font-family="Monospace" font-size="12" font-weight="400" font-style="normal" 
 >Ya = &quot;, Ya)</text>
<text fill="#000000" fill-opacity="1" stroke="none" xml:space="preserve" x="30" y="235" font-family="Monospace" font-size="12" font-weight="400" font-style="normal" 
 >Yb = int(input(&quot;</text>
<text fill="#000000" fill-opacity="1" stroke="none" xml:space="preserve" x="145.5" y="235" font-family="Monospace" font-size="12" font-weight="400" font-style="normal" 
 >Введите число </text>
<text fill="#000000" fill-opacity="1" stroke="none" xml:space="preserve" x="246.563" y="235" font-family="Monospace" font-size="12" font-weight="400" font-style="normal" 
 >Yb, </text>
<text fill="#000000" fill-opacity="1" stroke="none" xml:space="preserve" x="275.438" y="235" font-family="Monospace" font-size="12" font-weight="400" font-style="normal" 
 >которое прислал собеседник: &quot;))</text>
<text fill="#000000" fill-opacity="1" stroke="none" xml:space="preserve" x="30" y="249" font-family="Monospace" font-size="12" font-weight="400" font-style="normal" 
 >K = (a**(Ya*Yb))%n</text>
<text fill="#000000" fill-opacity="1" stroke="none" xml:space="preserve" x="30" y="263" font-family="Monospace" font-size="12" font-weight="400" font-style="normal" 
 >print (&quot;</text>
<text fill="#000000" fill-opacity="1" stroke="none" xml:space="preserve" x="87.75" y="263" font-family="Monospace" font-size="12" font-weight="400" font-style="normal" 
 >Ваш общий ключ: &quot;, </text>
<text fill="#000000" fill-opacity="1" stroke="none" xml:space="preserve" x="224.906" y="263" font-family="Monospace" font-size="12" font-weight="400" font-style="normal" 
 >K)</text>
</g>

<g fill="none" stroke="#000000" stroke-opacity="1" stroke-width="1" stroke-linecap="square" stroke-linejoin="bevel" transform="matrix(1,0,0,1,0,0)"
font-family="MesloLGS NF" font-size="10" font-weight="400" font-style="normal" 
>
</g>

<g fill="none" stroke="#000000" stroke-opacity="1" stroke-width="1" stroke-linecap="square" stroke-linejoin="bevel" transform="matrix(1,0,0,1,0,0)"
font-family="MesloLGS NF" font-size="10" font-weight="400" font-style="normal" 
>
</g>

<g fill="none" stroke="#848484" stroke-opacity="1" stroke-width="1" stroke-linecap="butt" stroke-linejoin="round" transform="matrix(1,0,0,1,0,0)"
font-family="MesloLGS NF" font-size="10" font-weight="400" font-style="normal" 
>
<path vector-effect="none" fill-rule="evenodd" d="M35,321 L35,356"/>
</g>

<g fill="none" stroke="#000000" stroke-opacity="1" stroke-width="1" stroke-linecap="square" stroke-linejoin="bevel" transform="matrix(1,0,0,1,0,0)"
font-family="MesloLGS NF" font-size="10" font-weight="400" font-style="normal" 
>
</g>

<g fill="none" stroke="#000000" stroke-opacity="1" stroke-width="1" stroke-linecap="square" stroke-linejoin="bevel" transform="matrix(1,0,0,1,0,0)"
font-family="MesloLGS NF" font-size="10" font-weight="400" font-style="normal" 
>
</g>

<g fill="none" stroke="#848484" stroke-opacity="1" stroke-width="1" stroke-linecap="butt" stroke-linejoin="round" transform="matrix(1,0,0,1,0,0)"
font-family="MesloLGS NF" font-size="10" font-weight="400" font-style="normal" 
>
<path vector-effect="none" fill-rule="evenodd" d="M187,352 L187,356"/>
</g>

<g fill="none" stroke="#000000" stroke-opacity="1" stroke-width="1" stroke-linecap="square" stroke-linejoin="bevel" transform="matrix(1,0,0,1,0,0)"
font-family="MesloLGS NF" font-size="10" font-weight="400" font-style="normal" 
>
</g>

<g fill="none" stroke="#000000" stroke-opacity="1" stroke-width="1" stroke-linecap="square" stroke-linejoin="bevel" transform="matrix(1,0,0,1,0,0)"
font-family="MesloLGS NF" font-size="10" font-weight="400" font-style="normal" 
>
</g>

<g fill="#fff7bc" fill-opacity="1" stroke="#969696" stroke-opacity="1" stroke-width="1" stroke-linecap="square" stroke-linejoin="round" transform="matrix(1,0,0,1,0,0)"
font-family="MesloLGS NF" font-size="10" font-weight="400" font-style="normal" 
>
<path vector-effect="none" fill-rule="evenodd" d="M16,338.5 L26,325 L246,325 L256,338.5 L246,352 L26,352 L16,338.5"/>
</g>

<g fill="#fff7bc" fill-opacity="1" stroke="#000000" stroke-opacity="1" stroke-width="1" stroke-linecap="square" stroke-linejoin="bevel" transform="matrix(1,0,0,1,0,0)"
font-family="Monospace" font-size="12" font-weight="400" font-style="normal" 
>
<text fill="#000000" fill-opacity="1" stroke="none" xml:space="preserve" x="30" y="343" font-family="Monospace" font-size="12" font-weight="400" font-style="normal" 
 >__name__ == &quot;__main__&quot;</text>
</g>

<g fill="none" stroke="#000000" stroke-opacity="1" stroke-width="1" stroke-linecap="square" stroke-linejoin="bevel" transform="matrix(1,0,0,1,0,0)"
font-family="MesloLGS NF" font-size="10" font-weight="400" font-style="normal" 
>
</g>

<g fill="none" stroke="#000000" stroke-opacity="1" stroke-width="1" stroke-linecap="square" stroke-linejoin="bevel" transform="matrix(1,0,0,1,3.75,158.25)"
font-family="MesloLGS NF" font-size="10" font-weight="400" font-style="normal" 
>
</g>

<g fill="none" stroke="#848484" stroke-opacity="1" stroke-width="1" stroke-linecap="square" stroke-linejoin="bevel" transform="matrix(1,0,0,1,3.75,158.25)"
font-family="Monospace" font-size="9" font-weight="400" font-style="normal" 
>
<text fill="#848484" fill-opacity="1" stroke="none" xml:space="preserve" x="9.29688" y="169.5" font-family="Monospace" font-size="9" font-weight="400" font-style="normal" 
 >n</text>
</g>

<g fill="none" stroke="#000000" stroke-opacity="1" stroke-width="1" stroke-linecap="square" stroke-linejoin="bevel" transform="matrix(1,0,0,1,3.75,158.25)"
font-family="MesloLGS NF" font-size="10" font-weight="400" font-style="normal" 
>
</g>

<g fill="none" stroke="#000000" stroke-opacity="1" stroke-width="1" stroke-linecap="square" stroke-linejoin="bevel" transform="matrix(1,0,0,1,0,0)"
font-family="MesloLGS NF" font-size="10" font-weight="400" font-style="normal" 
>
</g>

<g fill="none" stroke="#848484" stroke-opacity="1" stroke-width="1" stroke-linecap="square" stroke-linejoin="round" transform="matrix(1,0,0,1,0,0)"
font-family="MesloLGS NF" font-size="10" font-weight="400" font-style="normal" 
>
<path vector-effect="none" fill-rule="evenodd" d="M35,356 L35,391"/>
</g>

<g fill="none" stroke="#000000" stroke-opacity="1" stroke-width="1" stroke-linecap="square" stroke-linejoin="bevel" transform="matrix(1,0,0,1,0,0)"
font-family="MesloLGS NF" font-size="10" font-weight="400" font-style="normal" 
>
</g>

<g fill="none" stroke="#000000" stroke-opacity="1" stroke-width="1" stroke-linecap="square" stroke-linejoin="bevel" transform="matrix(1,0,0,1,0,0)"
font-family="MesloLGS NF" font-size="10" font-weight="400" font-style="normal" 
>
</g>

<g fill="none" stroke="#848484" stroke-opacity="1" stroke-width="1" stroke-linecap="butt" stroke-linejoin="round" transform="matrix(1,0,0,1,0,0)"
font-family="MesloLGS NF" font-size="10" font-weight="400" font-style="normal" 
>
<path vector-effect="none" fill-rule="evenodd" d="M187,356 L187,391"/>
</g>

<g fill="none" stroke="#000000" stroke-opacity="1" stroke-width="1" stroke-linecap="square" stroke-linejoin="bevel" transform="matrix(1,0,0,1,0,0)"
font-family="MesloLGS NF" font-size="10" font-weight="400" font-style="normal" 
>
</g>

<g fill="none" stroke="#000000" stroke-opacity="1" stroke-width="1" stroke-linecap="square" stroke-linejoin="bevel" transform="matrix(1,0,0,1,0,0)"
font-family="MesloLGS NF" font-size="10" font-weight="400" font-style="normal" 
>
</g>

<g fill="#f8f8f8" fill-opacity="1" stroke="#969696" stroke-opacity="1" stroke-width="1" stroke-linecap="square" stroke-linejoin="round" transform="matrix(1,0,0,1,0,0)"
font-family="MesloLGS NF" font-size="10" font-weight="400" font-style="normal" 
>
<rect x="168" y="360" width="88" height="27"/>
</g>

<g fill="#f8f8f8" fill-opacity="1" stroke="#000000" stroke-opacity="1" stroke-width="1" stroke-linecap="square" stroke-linejoin="bevel" transform="matrix(1,0,0,1,0,0)"
font-family="Monospace" font-size="12" font-weight="400" font-style="normal" 
>
<text fill="#000000" fill-opacity="1" stroke="none" xml:space="preserve" x="183" y="376" font-family="Monospace" font-size="12" font-weight="400" font-style="normal" 
 >main()</text>
</g>

<g fill="none" stroke="#000000" stroke-opacity="1" stroke-width="1" stroke-linecap="square" stroke-linejoin="bevel" transform="matrix(1,0,0,1,0,0)"
font-family="MesloLGS NF" font-size="10" font-weight="400" font-style="normal" 
>
</g>

<g fill="none" stroke="#000000" stroke-opacity="1" stroke-width="1" stroke-linecap="square" stroke-linejoin="bevel" transform="matrix(1,0,0,1,0,0)"
font-family="MesloLGS NF" font-size="10" font-weight="400" font-style="normal" 
>
</g>

<g fill="none" stroke="#848484" stroke-opacity="1" stroke-width="1" stroke-linecap="square" stroke-linejoin="round" transform="matrix(1,0,0,1,0,0)"
font-family="MesloLGS NF" font-size="10" font-weight="400" font-style="normal" 
>
<path vector-effect="none" fill-rule="evenodd" d="M35,391 L35,399 M162,395 L35,395"/>
</g>

<g fill="none" stroke="#000000" stroke-opacity="1" stroke-width="1" stroke-linecap="square" stroke-linejoin="bevel" transform="matrix(1,0,0,1,0,0)"
font-family="MesloLGS NF" font-size="10" font-weight="400" font-style="normal" 
>
</g>

<g fill="none" stroke="#000000" stroke-opacity="1" stroke-width="1" stroke-linecap="square" stroke-linejoin="bevel" transform="matrix(1,0,0,1,0,0)"
font-family="MesloLGS NF" font-size="10" font-weight="400" font-style="normal" 
>
</g>

<g fill="none" stroke="#848484" stroke-opacity="1" stroke-width="1" stroke-linecap="square" stroke-linejoin="round" transform="matrix(1,0,0,1,0,0)"
font-family="MesloLGS NF" font-size="10" font-weight="400" font-style="normal" 
>
<path vector-effect="none" fill-rule="evenodd" d="M187,391 L187,395 L162,395"/>
</g>

<g fill="none" stroke="#000000" stroke-opacity="1" stroke-width="1" stroke-linecap="square" stroke-linejoin="bevel" transform="matrix(1,0,0,1,0,0)"
font-family="MesloLGS NF" font-size="10" font-weight="400" font-style="normal" 
>
</g>

<g fill="none" stroke="#000000" stroke-opacity="1" stroke-width="1" stroke-linecap="square" stroke-linejoin="bevel" transform="matrix(1,0,0,1,0,0)"
font-family="MesloLGS NF" font-size="10" font-weight="400" font-style="normal" 
>
</g>
</g>
</svg>
